<svg xmlns="http://www.w3.org/2000/svg" width="1280" height="960" viewBox="0 0 1280 960"><rect width="1280" height="960" fill="#101321"/><style>text{font-family:'PingFang SC','Microsoft YaHei',sans-serif} .pixel{shape-rendering:crispEdges}</style><text x="36" y="30" fill="#f0bd9f" font-size="12" font-weight="400" text-anchor="start">01 / 结算</text><text x="36" y="62" fill="#f3e9e2" font-size="23" font-weight="700" text-anchor="start">让分享成为自然的下一步</text><rect x="34" y="85" width="374" height="785" rx="12" fill="#1a1b2e" stroke="#41415b"/><text x="58" y="130" fill="#d97757" font-size="23" font-weight="800" text-anchor="start">合成大Clawd</text><text x="384" y="130" fill="#bdb4cc" font-size="11" font-weight="400" text-anchor="end">每日挑战</text><path d="M58 153h326" stroke="#41415b"/><text x="58" y="192" fill="#f0bd9f" font-size="12" font-weight="400" text-anchor="start">10 月 03 日 · 正式挑战</text><text x="58" y="231" fill="#f3e9e2" font-size="23" font-weight="700" text-anchor="start">这一局，合得不错</text><g class="pixel" transform="translate(171 275) scale(5)"><rect x="2" y="0" width="1" height="1" fill="#4A5075"/><rect x="3" y="0" width="1" height="1" fill="#4A5075"/><rect x="4" y="0" width="1" height="1" fill="#4A5075"/><rect x="5" y="0" width="1" height="1" fill="#4A5075"/><rect x="6" y="0" width="1" height="1" fill="#4A5075"/><rect x="7" y="0" width="1" height="1" fill="#4A5075"/><rect x="8" y="0" width="1" height="1" fill="#4A5075"/><rect x="9" y="0" width="1" height="1" fill="#4A5075"/><rect x="10" y="0" width="1" height="1" fill="#4A5075"/><rect x="11" y="0" width="1" height="1" fill="#4A5075"/><rect x="12" y="0" width="1" height="1" fill="#4A5075"/><rect x="13" y="0" width="1" height="1" fill="#4A5075"/><rect x="2" y="1" width="1" height="1" fill="#F7C948"/><rect x="3" y="1" width="1" height="1" fill="#F7C948"/><rect x="4" y="1" width="1" height="1" fill="#F7C948"/><rect x="5" y="1" width="1" height="1" fill="#F7C948"/><rect x="6" y="1" width="1" height="1" fill="#F7C948"/><rect x="7" y="1" width="1" height="1" fill="#F7C948"/><rect x="8" y="1" width="1" height="1" fill="#F7C948"/><rect x="9" y="1" width="1" height="1" fill="#F7C948"/><rect x="10" y="1" width="1" height="1" fill="#F7C948"/><rect x="11" y="1" width="1" height="1" fill="#F7C948"/><rect x="12" y="1" width="1" height="1" fill="#F7C948"/><rect x="13" y="1" width="1" height="1" fill="#F7C948"/><rect x="2" y="2" width="1" height="1" fill="#4A5075"/><rect x="3" y="2" width="1" height="1" fill="#E2607D"/><rect x="4" y="2" width="1" height="1" fill="#E2607D"/><rect x="5" y="2" width="1" height="1" fill="#1B1A22"/><rect x="6" y="2" width="1" height="1" fill="#E2607D"/><rect x="7" y="2" width="1" height="1" fill="#E2607D"/><rect x="8" y="2" width="1" height="1" fill="#E2607D"/><rect x="9" y="2" width="1" height="1" fill="#E2607D"/><rect x="10" y="2" width="1" height="1" fill="#1B1A22"/><rect x="11" y="2" width="1" height="1" fill="#E2607D"/><rect x="12" y="2" width="1" height="1" fill="#E2607D"/><rect x="13" y="2" width="1" height="1" fill="#4A5075"/><rect x="0" y="3" width="1" height="1" fill="#E2607D"/><rect x="1" y="3" width="1" height="1" fill="#E2607D"/><rect x="2" y="3" width="1" height="1" fill="#4A5075"/><rect x="3" y="3" width="1" height="1" fill="#E2607D"/><rect x="4" y="3" width="1" height="1" fill="#E2607D"/><rect x="5" y="3" width="1" height="1" fill="#1B1A22"/><rect x="6" y="3" width="1" height="1" fill="#E2607D"/><rect x="7" y="3" width="1" height="1" fill="#E2607D"/><rect x="8" y="3" width="1" height="1" fill="#E2607D"/><rect x="9" y="3" width="1" height="1" fill="#E2607D"/><rect x="10" y="3" width="1" height="1" fill="#1B1A22"/><rect x="11" y="3" width="1" height="1" fill="#E2607D"/><rect x="12" y="3" width="1" height="1" fill="#E2607D"/><rect x="13" y="3" width="1" height="1" fill="#4A5075"/><rect x="14" y="3" width="1" height="1" fill="#E2607D"/><rect x="15" y="3" width="1" height="1" fill="#E2607D"/><rect x="0" y="4" width="1" height="1" fill="#E2607D"/><rect x="1" y="4" width="1" height="1" fill="#E2607D"/><rect x="2" y="4" width="1" height="1" fill="#4A5075"/><rect x="3" y="4" width="1" height="1" fill="#4A5075"/><rect x="4" y="4" width="1" height="1" fill="#4A5075"/><rect x="5" y="4" width="1" height="1" fill="#4A5075"/><rect x="6" y="4" width="1" height="1" fill="#4A5075"/><rect x="7" y="4" width="1" height="1" fill="#4A5075"/><rect x="8" y="4" width="1" height="1" fill="#4A5075"/><rect x="9" y="4" width="1" height="1" fill="#4A5075"/><rect x="10" y="4" width="1" height="1" fill="#4A5075"/><rect x="11" y="4" width="1" height="1" fill="#4A5075"/><rect x="12" y="4" width="1" height="1" fill="#4A5075"/><rect x="13" y="4" width="1" height="1" fill="#4A5075"/><rect x="14" y="4" width="1" height="1" fill="#E2607D"/><rect x="15" y="4" width="1" height="1" fill="#E2607D"/><rect x="2" y="5" width="1" height="1" fill="#4A5075"/><rect x="3" y="5" width="1" height="1" fill="#4A5075"/><rect x="4" y="5" width="1" height="1" fill="#4A5075"/><rect x="5" y="5" width="1" height="1" fill="#4A5075"/><rect x="6" y="5" width="1" height="1" fill="#4A5075"/><rect x="7" y="5" width="1" height="1" fill="#4A5075"/><rect x="8" y="5" width="1" height="1" fill="#4A5075"/><rect x="9" y="5" width="1" height="1" fill="#4A5075"/><rect x="10" y="5" width="1" height="1" fill="#4A5075"/><rect x="11" y="5" width="1" height="1" fill="#4A5075"/><rect x="12" y="5" width="1" height="1" fill="#4A5075"/><rect x="13" y="5" width="1" height="1" fill="#4A5075"/><rect x="2" y="6" width="1" height="1" fill="#E2607D"/><rect x="3" y="6" width="1" height="1" fill="#E2607D"/><rect x="4" y="6" width="1" height="1" fill="#E2607D"/><rect x="5" y="6" width="1" height="1" fill="#E2607D"/><rect x="6" y="6" width="1" height="1" fill="#E2607D"/><rect x="7" y="6" width="1" height="1" fill="#E2607D"/><rect x="8" y="6" width="1" height="1" fill="#E2607D"/><rect x="9" y="6" width="1" height="1" fill="#E2607D"/><rect x="10" y="6" width="1" height="1" fill="#E2607D"/><rect x="11" y="6" width="1" height="1" fill="#E2607D"/><rect x="12" y="6" width="1" height="1" fill="#E2607D"/><rect x="13" y="6" width="1" height="1" fill="#E2607D"/><rect x="2" y="7" width="1" height="1" fill="#E2607D"/><rect x="3" y="7" width="1" height="1" fill="#E2607D"/><rect x="4" y="7" width="1" height="1" fill="#E2607D"/><rect x="5" y="7" width="1" height="1" fill="#E2607D"/><rect x="6" y="7" width="1" height="1" fill="#E2607D"/><rect x="7" y="7" width="1" height="1" fill="#E2607D"/><rect x="8" y="7" width="1" height="1" fill="#E2607D"/><rect x="9" y="7" width="1" height="1" fill="#E2607D"/><rect x="10" y="7" width="1" height="1" fill="#E2607D"/><rect x="11" y="7" width="1" height="1" fill="#E2607D"/><rect x="12" y="7" width="1" height="1" fill="#E2607D"/><rect x="13" y="7" width="1" height="1" fill="#E2607D"/><rect x="3" y="8" width="1" height="1" fill="#E2607D"/><rect x="5" y="8" width="1" height="1" fill="#E2607D"/><rect x="10" y="8" width="1" height="1" fill="#E2607D"/><rect x="12" y="8" width="1" height="1" fill="#E2607D"/><rect x="3" y="9" width="1" height="1" fill="#E2607D"/><rect x="5" y="9" width="1" height="1" fill="#E2607D"/><rect x="10" y="9" width="1" height="1" fill="#E2607D"/><rect x="12" y="9" width="1" height="1" fill="#E2607D"/><rect x="-2" y="1" width="1" height="1" fill="#F7C948"/><rect x="-1" y="1" width="1" height="1" fill="#F7C948"/><rect x="0" y="1" width="1" height="1" fill="#F7C948"/><rect x="1" y="1" width="1" height="1" fill="#F7C948"/><rect x="-3" y="2" width="1" height="1" fill="#F7C948"/><rect x="-2" y="2" width="1" height="1" fill="#F7C948"/><rect x="-3" y="3" width="1" height="1" fill="#F7C948"/></g><text x="221" y="460" fill="#f3e9e2" font-size="62" font-weight="800" text-anchor="middle">3,465</text><text x="221" y="498" fill="#bdb4cc" font-size="12" font-weight="400" text-anchor="middle">100 / 100 投 · 最高合成 Ninja Clawd</text><rect x="58" y="532" width="326" height="53" rx="7" fill="#302b3b" stroke="none"/><text x="72" y="564" fill="#f3e9e2" font-size="12" font-weight="400" text-anchor="start">成绩已提交 · 今日个人最好 3,465 分</text><rect x="58" y="608" width="326" height="46" rx="7" fill="#d97757" stroke="none"/><text x="221" y="637" fill="#16131b" font-size="14" font-weight="700" text-anchor="middle">分享这一局</text><rect x="58" y="666" width="326" height="46" rx="7" fill="#1a1b2e" stroke="#41415b"/><text x="221" y="695" fill="#f3e9e2" font-size="14" font-weight="700" text-anchor="middle">再挑战</text><rect x="58" y="724" width="326" height="46" rx="7" fill="#1a1b2e" stroke="#41415b"/><text x="221" y="753" fill="#f3e9e2" font-size="14" font-weight="700" text-anchor="middle">查看今日榜</text><text x="221" y="818" fill="#bdb4cc" font-size="12" font-weight="400" text-anchor="middle">分享不会消耗正式机会</text><text x="455" y="30" fill="#f0bd9f" font-size="12" font-weight="400" text-anchor="start">02 / 卡片预览</text><text x="455" y="62" fill="#f3e9e2" font-size="23" font-weight="700" text-anchor="start">分数突出，状态说清楚</text><rect x="453" y="85" width="374" height="785" rx="12" fill="#1a1b2e" stroke="#41415b"/><text x="477" y="130" fill="#d97757" font-size="23" font-weight="800" text-anchor="start">合成大Clawd</text><text x="803" y="130" fill="#bdb4cc" font-size="11" font-weight="400" text-anchor="end">每日挑战</text><path d="M477 153h326" stroke="#41415b"/><text x="477" y="192" fill="#f3e9e2" font-size="23" font-weight="700" text-anchor="start">分享这一局</text><text x="477" y="222" fill="#bdb4cc" font-size="13" font-weight="400" text-anchor="start">同一道题，你能合到多少分？</text><rect x="477" y="244" width="326" height="439" rx="8" fill="#171c2e" stroke="#6c5051"/><text x="497" y="280" fill="#f0bd9f" font-size="17" font-weight="700" text-anchor="start">合成大Clawd</text><rect x="691" y="263" width="93" height="24" rx="4" fill="#171c2e" stroke="#7e574d"/><text x="737" y="280" fill="#f3e9e2" font-size="10" font-weight="400" text-anchor="middle">正式 · 已提交</text><text x="497" y="319" fill="#bdb4cc" font-size="12" font-weight="400" text-anchor="start">每日挑战 / 2026.10.03</text><text x="497" y="352" fill="#f3e9e2" font-size="15" font-weight="600" text-anchor="start">橙色钳子</text><text x="497" y="428" fill="#f3e9e2" font-size="64" font-weight="800" text-anchor="start">3,465</text><g class="pixel" transform="translate(506 451) scale(3.2)"><rect x="2" y="0" width="1" height="1" fill="#4A5075"/><rect x="3" y="0" width="1" height="1" fill="#4A5075"/><rect x="4" y="0" width="1" height="1" fill="#4A5075"/><rect x="5" y="0" width="1" height="1" fill="#4A5075"/><rect x="6" y="0" width="1" height="1" fill="#4A5075"/><rect x="7" y="0" width="1" height="1" fill="#4A5075"/><rect x="8" y="0" width="1" height="1" fill="#4A5075"/><rect x="9" y="0" width="1" height="1" fill="#4A5075"/><rect x="10" y="0" width="1" height="1" fill="#4A5075"/><rect x="11" y="0" width="1" height="1" fill="#4A5075"/><rect x="12" y="0" width="1" height="1" fill="#4A5075"/><rect x="13" y="0" width="1" height="1" fill="#4A5075"/><rect x="2" y="1" width="1" height="1" fill="#F7C948"/><rect x="3" y="1" width="1" height="1" fill="#F7C948"/><rect x="4" y="1" width="1" height="1" fill="#F7C948"/><rect x="5" y="1" width="1" height="1" fill="#F7C948"/><rect x="6" y="1" width="1" height="1" fill="#F7C948"/><rect x="7" y="1" width="1" height="1" fill="#F7C948"/><rect x="8" y="1" width="1" height="1" fill="#F7C948"/><rect x="9" y="1" width="1" height="1" fill="#F7C948"/><rect x="10" y="1" width="1" height="1" fill="#F7C948"/><rect x="11" y="1" width="1" height="1" fill="#F7C948"/><rect x="12" y="1" width="1" height="1" fill="#F7C948"/><rect x="13" y="1" width="1" height="1" fill="#F7C948"/><rect x="2" y="2" width="1" height="1" fill="#4A5075"/><rect x="3" y="2" width="1" height="1" fill="#E2607D"/><rect x="4" y="2" width="1" height="1" fill="#E2607D"/><rect x="5" y="2" width="1" height="1" fill="#1B1A22"/><rect x="6" y="2" width="1" height="1" fill="#E2607D"/><rect x="7" y="2" width="1" height="1" fill="#E2607D"/><rect x="8" y="2" width="1" height="1" fill="#E2607D"/><rect x="9" y="2" width="1" height="1" fill="#E2607D"/><rect x="10" y="2" width="1" height="1" fill="#1B1A22"/><rect x="11" y="2" width="1" height="1" fill="#E2607D"/><rect x="12" y="2" width="1" height="1" fill="#E2607D"/><rect x="13" y="2" width="1" height="1" fill="#4A5075"/><rect x="0" y="3" width="1" height="1" fill="#E2607D"/><rect x="1" y="3" width="1" height="1" fill="#E2607D"/><rect x="2" y="3" width="1" height="1" fill="#4A5075"/><rect x="3" y="3" width="1" height="1" fill="#E2607D"/><rect x="4" y="3" width="1" height="1" fill="#E2607D"/><rect x="5" y="3" width="1" height="1" fill="#1B1A22"/><rect x="6" y="3" width="1" height="1" fill="#E2607D"/><rect x="7" y="3" width="1" height="1" fill="#E2607D"/><rect x="8" y="3" width="1" height="1" fill="#E2607D"/><rect x="9" y="3" width="1" height="1" fill="#E2607D"/><rect x="10" y="3" width="1" height="1" fill="#1B1A22"/><rect x="11" y="3" width="1" height="1" fill="#E2607D"/><rect x="12" y="3" width="1" height="1" fill="#E2607D"/><rect x="13" y="3" width="1" height="1" fill="#4A5075"/><rect x="14" y="3" width="1" height="1" fill="#E2607D"/><rect x="15" y="3" width="1" height="1" fill="#E2607D"/><rect x="0" y="4" width="1" height="1" fill="#E2607D"/><rect x="1" y="4" width="1" height="1" fill="#E2607D"/><rect x="2" y="4" width="1" height="1" fill="#4A5075"/><rect x="3" y="4" width="1" height="1" fill="#4A5075"/><rect x="4" y="4" width="1" height="1" fill="#4A5075"/><rect x="5" y="4" width="1" height="1" fill="#4A5075"/><rect x="6" y="4" width="1" height="1" fill="#4A5075"/><rect x="7" y="4" width="1" height="1" fill="#4A5075"/><rect x="8" y="4" width="1" height="1" fill="#4A5075"/><rect x="9" y="4" width="1" height="1" fill="#4A5075"/><rect x="10" y="4" width="1" height="1" fill="#4A5075"/><rect x="11" y="4" width="1" height="1" fill="#4A5075"/><rect x="12" y="4" width="1" height="1" fill="#4A5075"/><rect x="13" y="4" width="1" height="1" fill="#4A5075"/><rect x="14" y="4" width="1" height="1" fill="#E2607D"/><rect x="15" y="4" width="1" height="1" fill="#E2607D"/><rect x="2" y="5" width="1" height="1" fill="#4A5075"/><rect x="3" y="5" width="1" height="1" fill="#4A5075"/><rect x="4" y="5" width="1" height="1" fill="#4A5075"/><rect x="5" y="5" width="1" height="1" fill="#4A5075"/><rect x="6" y="5" width="1" height="1" fill="#4A5075"/><rect x="7" y="5" width="1" height="1" fill="#4A5075"/><rect x="8" y="5" width="1" height="1" fill="#4A5075"/><rect x="9" y="5" width="1" height="1" fill="#4A5075"/><rect x="10" y="5" width="1" height="1" fill="#4A5075"/><rect x="11" y="5" width="1" height="1" fill="#4A5075"/><rect x="12" y="5" width="1" height="1" fill="#4A5075"/><rect x="13" y="5" width="1" height="1" fill="#4A5075"/><rect x="2" y="6" width="1" height="1" fill="#E2607D"/><rect x="3" y="6" width="1" height="1" fill="#E2607D"/><rect x="4" y="6" width="1" height="1" fill="#E2607D"/><rect x="5" y="6" width="1" height="1" fill="#E2607D"/><rect x="6" y="6" width="1" height="1" fill="#E2607D"/><rect x="7" y="6" width="1" height="1" fill="#E2607D"/><rect x="8" y="6" width="1" height="1" fill="#E2607D"/><rect x="9" y="6" width="1" height="1" fill="#E2607D"/><rect x="10" y="6" width="1" height="1" fill="#E2607D"/><rect x="11" y="6" width="1" height="1" fill="#E2607D"/><rect x="12" y="6" width="1" height="1" fill="#E2607D"/><rect x="13" y="6" width="1" height="1" fill="#E2607D"/><rect x="2" y="7" width="1" height="1" fill="#E2607D"/><rect x="3" y="7" width="1" height="1" fill="#E2607D"/><rect x="4" y="7" width="1" height="1" fill="#E2607D"/><rect x="5" y="7" width="1" height="1" fill="#E2607D"/><rect x="6" y="7" width="1" height="1" fill="#E2607D"/><rect x="7" y="7" width="1" height="1" fill="#E2607D"/><rect x="8" y="7" width="1" height="1" fill="#E2607D"/><rect x="9" y="7" width="1" height="1" fill="#E2607D"/><rect x="10" y="7" width="1" height="1" fill="#E2607D"/><rect x="11" y="7" width="1" height="1" fill="#E2607D"/><rect x="12" y="7" width="1" height="1" fill="#E2607D"/><rect x="13" y="7" width="1" height="1" fill="#E2607D"/><rect x="3" y="8" width="1" height="1" fill="#E2607D"/><rect x="5" y="8" width="1" height="1" fill="#E2607D"/><rect x="10" y="8" width="1" height="1" fill="#E2607D"/><rect x="12" y="8" width="1" height="1" fill="#E2607D"/><rect x="3" y="9" width="1" height="1" fill="#E2607D"/><rect x="5" y="9" width="1" height="1" fill="#E2607D"/><rect x="10" y="9" width="1" height="1" fill="#E2607D"/><rect x="12" y="9" width="1" height="1" fill="#E2607D"/><rect x="-2" y="1" width="1" height="1" fill="#F7C948"/><rect x="-1" y="1" width="1" height="1" fill="#F7C948"/><rect x="0" y="1" width="1" height="1" fill="#F7C948"/><rect x="1" y="1" width="1" height="1" fill="#F7C948"/><rect x="-3" y="2" width="1" height="1" fill="#F7C948"/><rect x="-2" y="2" width="1" height="1" fill="#F7C948"/><rect x="-3" y="3" width="1" height="1" fill="#F7C948"/></g><text x="604" y="480" fill="#f3e9e2" font-size="16" font-weight="700" text-anchor="start">Ninja Clawd</text><text x="604" y="505" fill="#bdb4cc" font-size="12" font-weight="400" text-anchor="start">最高合成 · Lv.9</text><path d="M497 533h286" stroke="#41415b"/><text x="497" y="558" fill="#bdb4cc" font-size="12" font-weight="400" text-anchor="start">100 次投放</text><text x="783" y="558" fill="#bdb4cc" font-size="12" font-weight="400" text-anchor="end">规则 daily-1</text><path d="M497 575h286" stroke="#41415b"/><text x="497" y="611" fill="#f3e9e2" font-size="17" font-weight="650" text-anchor="start">同一道题，等你来挑战。</text><text x="497" y="642" fill="#bdb4cc" font-size="11" font-weight="400" text-anchor="start">tsdsj.github.io/clawd-merge/</text><text x="497" y="661" fill="#bdb4cc" font-size="11" font-weight="400" text-anchor="start">#challenge=2026-10-03&amp;rules=daily-1</text><text x="497" y="676" fill="#bdb4cc" font-size="11" font-weight="400" text-anchor="start">&amp;target=3465</text><rect x="477" y="709" width="326" height="46" rx="7" fill="#d97757" stroke="none"/><text x="640" y="738" fill="#16131b" font-size="14" font-weight="700" text-anchor="middle">分享图片与链接</text><rect x="477" y="767" width="326" height="46" rx="7" fill="#1a1b2e" stroke="#41415b"/><text x="640" y="796" fill="#f3e9e2" font-size="14" font-weight="700" text-anchor="middle">保存图片 / 复制挑战链接</text><text x="640" y="840" fill="#bdb4cc" font-size="11" font-weight="400" text-anchor="middle">待提交与练习始终保留各自状态</text><text x="874" y="30" fill="#f0bd9f" font-size="12" font-weight="400" text-anchor="start">03 / 好友入口</text><text x="874" y="62" fill="#f3e9e2" font-size="23" font-weight="700" text-anchor="start">先看邀请，再决定开局</text><rect x="872" y="85" width="374" height="785" rx="12" fill="#1a1b2e" stroke="#41415b"/><text x="896" y="130" fill="#d97757" font-size="23" font-weight="800" text-anchor="start">合成大Clawd</text><text x="1222" y="130" fill="#bdb4cc" font-size="11" font-weight="400" text-anchor="end">每日挑战</text><path d="M896 153h326" stroke="#41415b"/><text x="896" y="192" fill="#f0bd9f" font-size="12" font-weight="400" text-anchor="start">收到一个同题挑战</text><text x="896" y="232" fill="#f3e9e2" font-size="23" font-weight="700" text-anchor="start">10 月 03 日，来试一局</text><text x="896" y="264" fill="#bdb4cc" font-size="13" font-weight="400" text-anchor="start">今日题目已由服务器确认</text><path d="M896 294h326" stroke="#41415b"/><text x="896" y="329" fill="#bdb4cc" font-size="13" font-weight="400" text-anchor="start">朋友的目标分</text><text x="896" y="400" fill="#f3e9e2" font-size="52" font-weight="800" text-anchor="start">3,465</text><text x="896" y="432" fill="#f0bd9f" font-size="12" font-weight="400" text-anchor="start">分享者填写 · 未经核验</text><path d="M896 455h326" stroke="#41415b"/><text x="896" y="487" fill="#f3e9e2" font-size="14" font-weight="400" text-anchor="start">相同投放序列，共 100 投。</text><text x="896" y="515" fill="#bdb4cc" font-size="13" font-weight="400" text-anchor="start">正式挑战使用你自己的身份和今日机会。</text><rect x="896" y="541" width="326" height="58" rx="7" fill="#302b3b" stroke="none"/><text x="910" y="565" fill="#f3e9e2" font-size="13" font-weight="400" text-anchor="start">你的原局已保留</text><text x="910" y="584" fill="#bdb4cc" font-size="12" font-weight="400" text-anchor="start">2,864 分 / 剩余 37 投</text><rect x="896" y="622" width="326" height="46" rx="7" fill="#d97757" stroke="none"/><text x="1059" y="651" fill="#16131b" font-size="14" font-weight="700" text-anchor="middle">查看今日正式挑战</text><rect x="896" y="680" width="326" height="46" rx="7" fill="#1a1b2e" stroke="#41415b"/><text x="1059" y="709" fill="#f3e9e2" font-size="14" font-weight="700" text-anchor="middle">练这道题 · 不参与排名</text><text x="1059" y="758" fill="#f0bd9f" font-size="13" font-weight="400" text-anchor="middle">暂不挑战，返回我的游戏</text><text x="1059" y="811" fill="#bdb4cc" font-size="11" font-weight="400" text-anchor="middle">打开不扣次数 · 开始新局前确认替换</text><text x="34" y="913" fill="#bdb4cc" font-size="15" font-weight="400" text-anchor="start">T11 设计稿 · 日期与成绩为示例 · 旧题只练习 · 目标分未经核验 · 真实分享由用户主动发起</text></svg>